<?xml version="1.0" encoding="UTF-8"?>
<svg xmlns="http://www.w3.org/2000/svg" width="1440" height="466" viewBox="0 0 1440 466" fill="none">
  <line x1="720.5" y1="-2.18557e-08" x2="720.5" y2="466" stroke="white"></line>
  <path d="M896.697 255.102C893.578 258.645 889.659 261.414 885.257 263.184C880.854 264.954 876.092 265.676 871.355 265.291C866.618 264.905 862.039 263.424 857.989 260.967C853.939 258.509 850.531 255.144 848.041 251.144C846.402 248.485 845.179 245.597 844.413 242.577C844.334 242.261 844.258 241.945 844.19 241.625C844.165 241.523 844.147 241.423 844.129 241.324C843.744 239.399 843.554 237.441 843.561 235.478C843.561 235.166 843.561 234.854 843.579 234.541C843.607 233.718 843.696 232.899 843.845 232.089H820.137C820.137 232.351 820.104 232.607 820.09 232.866C820.09 232.866 820 234.616 820 235.478C819.997 240.464 820.706 245.425 822.105 250.215C822.727 252.495 823.535 254.722 824.523 256.873V256.873C828.196 265.125 833.93 272.32 841.188 277.783C848.447 283.245 856.99 286.797 866.018 288.104C875.046 289.411 884.261 288.43 892.801 285.255C901.34 282.079 908.923 276.812 914.838 269.948L896.697 255.102Z" fill="white"></path>
  <path d="M1022.38 287.729H1000.83V210.677H1022.38V221.48C1023.88 219 1025.87 216.841 1028.23 215.131C1032.14 212.203 1036.75 211.106 1041.14 210.354C1046.02 209.529 1051.01 209.633 1055.86 210.659L1056.75 210.843L1053.04 233.977L1051.9 233.533C1047.41 231.714 1042.49 231.187 1037.7 232.014C1033.29 232.649 1029.31 234.937 1026.56 238.403C1024.3 241.207 1022.91 244.866 1022.44 249.278V250.566C1022.4 251.23 1022.38 251.939 1022.38 252.678V287.729Z" fill="white"></path>
  <path d="M1114.67 255.474C1113.53 258.735 1111.55 261.647 1108.93 263.926C1106.31 266.206 1103.14 267.775 1099.72 268.48C1096.3 269.186 1092.76 269.004 1089.43 267.951C1086.11 266.899 1083.12 265.013 1080.75 262.477L1098.19 255.091V255.066L1106.82 251.446L1134.48 239.815C1132.19 230.285 1126.4 221.935 1118.23 216.384C1110.06 210.834 1100.1 208.479 1090.27 209.778C1080.45 211.076 1071.46 215.935 1065.06 223.411C1058.65 230.887 1055.29 240.447 1055.61 250.237C1055.94 260.026 1059.94 269.346 1066.83 276.388C1073.72 283.43 1083.01 287.691 1092.9 288.346C1102.79 289 1112.58 286 1120.36 279.929C1128.14 273.858 1133.35 265.147 1135 255.489L1114.67 255.474ZM1095.59 228.955C1099.88 228.952 1104.06 230.308 1107.52 232.824L1075.55 246.254C1076.21 241.465 1078.6 237.074 1082.29 233.894C1085.97 230.713 1090.7 228.959 1095.59 228.955V228.955Z" fill="white"></path>
  <path d="M1338.99 287.729H1317.4V243.049C1317.4 237.892 1316.29 234.296 1314.11 232.366C1311.91 230.399 1309.03 229.344 1306.06 229.42C1304.09 229.472 1302.16 230.006 1300.44 230.974C1298.51 232.004 1296.85 233.714 1295.52 236.071C1294.2 238.428 1293.5 241.608 1293.5 245.48V287.715H1271.9V243.049C1271.9 237.878 1270.87 234.275 1268.82 232.348C1266.77 230.421 1264.24 229.42 1261.18 229.42C1259.39 229.42 1257.45 229.945 1255.4 230.985C1253.34 232.025 1251.61 233.736 1250.17 236.096C1248.73 238.456 1248.01 241.629 1248.01 245.48V287.715H1226.42V210.517H1248.01V220.1C1250.02 217.262 1252.54 214.814 1255.44 212.877C1259.16 210.479 1263.51 209.233 1267.95 209.299C1273.26 209.299 1277.69 210.538 1281.12 212.976C1283.78 214.865 1286.3 217.945 1288.62 222.204C1290.61 219.141 1293.65 215.486 1297.91 213.086C1302.26 210.607 1307.2 209.305 1312.22 209.314C1317.5 209.314 1322.19 210.538 1326.17 212.952C1330.15 215.365 1333.36 219.17 1335.61 224.231C1337.87 229.292 1339 235.588 1339 243.066L1338.99 287.729Z" fill="white"></path>
  <path d="M1199.56 255.474C1198.42 258.735 1196.45 261.647 1193.83 263.926C1191.21 266.206 1188.03 267.775 1184.61 268.48C1181.2 269.186 1177.65 269.004 1174.33 267.951C1171 266.899 1168.01 265.013 1165.64 262.477L1183.09 255.091V255.066L1191.71 251.446L1219.37 239.815C1217.08 230.285 1211.29 221.935 1203.12 216.384C1194.96 210.834 1184.99 208.479 1175.17 209.778C1165.34 211.076 1156.35 215.935 1149.95 223.411C1143.54 230.887 1140.18 240.447 1140.51 250.237C1140.83 260.026 1144.83 269.346 1151.72 276.388C1158.61 283.43 1167.9 287.691 1177.8 288.346C1187.69 289 1197.47 286 1205.25 279.929C1213.03 273.858 1218.25 265.147 1219.89 255.489L1199.56 255.474ZM1180.48 228.955C1184.77 228.952 1188.96 230.308 1192.42 232.824L1160.45 246.254C1161.1 241.465 1163.5 237.074 1167.18 233.894C1170.86 230.713 1175.59 228.959 1180.48 228.955V228.955Z" fill="white"></path>
  <path d="M983.858 217.917C977.543 212.714 969.256 210.073 959.23 210.073C949.84 210.073 941.891 212.316 935.601 216.735C929.814 220.795 925.826 225.824 923.747 231.681L923.387 232.745L944.556 236.547L944.883 235.925C945.819 234.152 947.13 232.598 948.727 231.368C950.986 229.615 954.115 228.728 958.041 228.728C962.761 228.728 966.16 229.792 968.146 231.922C969.82 233.721 970.891 236.83 971.131 240.554C955.872 239.748 943.737 241.036 935.048 244.387C925.579 248.032 920.779 254.921 920.779 264.866C920.723 269.122 921.89 273.306 924.145 276.933C926.387 280.681 929.677 283.676 933.927 285.806C938.176 287.935 943.213 289 949.039 289C955.405 289 960.929 287.602 965.459 284.844C968.487 283.011 971.19 280.7 973.463 278.005V287.818H993.503V245.409C993.493 232.44 990.252 223.191 983.858 217.917ZM967.805 262.452C966.102 264.959 963.922 267.114 961.386 268.798C958.911 270.427 956.356 271.282 953.81 271.389C950.142 271.573 947.304 270.988 945.368 269.653C943.464 268.344 942.537 266.367 942.537 263.62C942.537 259.829 945.318 257.306 951.04 255.9C955.093 254.954 959.247 254.497 963.412 254.537C965.959 254.542 968.504 254.675 971.038 254.935C970.489 257.632 969.389 260.19 967.805 262.452Z" fill="white"></path>
  <path d="M847.883 217.388C856.114 217.388 862.787 210.795 862.787 202.662C862.787 194.53 856.114 187.937 847.883 187.937C839.652 187.937 832.979 194.53 832.979 202.662C832.979 210.795 839.652 217.388 847.883 217.388Z" fill="white"></path>
  <path d="M917.561 204.135C917.561 204.135 906.756 186.766 883.891 183L877.763 205.69C877.763 205.69 890.576 206.194 899.442 218.957L917.561 204.135Z" fill="white"></path>
  <path d="M314.634 208.498C332.516 208.498 347.013 194.023 347.013 176.168C347.013 158.312 332.516 143.837 314.634 143.837C296.751 143.837 282.255 158.312 282.255 176.168C282.255 194.023 296.751 208.498 314.634 208.498Z" fill="white"></path>
  <path d="M420.676 291.305C413.9 299.086 405.385 305.165 395.82 309.051C386.255 312.936 375.908 314.52 365.617 313.672C355.325 312.825 345.378 309.571 336.58 304.174C327.781 298.777 320.378 291.388 314.97 282.604C311.408 276.765 308.748 270.422 307.08 263.791C306.912 263.097 306.744 262.403 306.599 261.705C306.549 261.48 306.511 261.263 306.465 261.041C305.621 256.814 305.195 252.514 305.194 248.203C305.194 247.52 305.217 246.838 305.24 246.155C305.298 244.348 305.488 242.547 305.809 240.768H254.298C254.256 241.34 254.229 241.911 254.195 242.472C254.195 242.472 254 246.312 254 248.192C253.996 259.141 255.539 270.037 258.582 280.557C261.152 289.67 263.868 295.187 263.868 295.187H263.891C282.041 336.253 323.218 364.992 371.002 364.992C387.952 365.014 404.703 361.351 420.091 354.255C435.48 347.16 449.136 336.804 460.112 323.907L420.676 291.305Z" fill="white"></path>
  <path d="M465.996 179.408C465.996 179.408 442.518 141.278 392.844 133L379.54 182.806C379.54 182.806 407.375 183.912 426.632 211.93L465.996 179.408Z" fill="white"></path>
</svg>
